<svg width="32" height="33" viewBox="0 0 32 33" fill="none" xmlns="http://www.w3.org/2000/svg">
<g clip-path="url(#clip0_2209_30)">
<path d="M0 0.5H32V32.5H0V0.5Z" fill="#FFBD59"/>
<path d="M23.08 20.7199C22.49 17.1899 19.1 14.3199 15.52 14.3199C11.63 14.3199 8.21003 17.4699 7.88003 21.3499C7.75003 22.8499 8.23003 24.2699 9.22003 25.3399C10.2 26.4099 11.58 26.9999 13.08 26.9999H17.76C19.45 26.9999 20.93 26.3399 21.94 25.1499C22.95 23.9599 23.35 22.3799 23.08 20.7199Z" fill="#292D32"/>
<path d="M14.28 12.86C15.8982 12.86 17.21 11.5482 17.21 9.93C17.21 8.31181 15.8982 7 14.28 7C12.6618 7 11.35 8.31181 11.35 9.93C11.35 11.5482 12.6618 12.86 14.28 12.86Z" fill="#292D32"/>
<path d="M20.94 14.03C22.2876 14.03 23.38 12.9376 23.38 11.59C23.38 10.2424 22.2876 9.15002 20.94 9.15002C19.5924 9.15002 18.5 10.2424 18.5 11.59C18.5 12.9376 19.5924 14.03 20.94 14.03Z" fill="#292D32"/>
<path d="M24.55 17.93C25.6269 17.93 26.5 17.057 26.5 15.98C26.5 14.9031 25.6269 14.03 24.55 14.03C23.473 14.03 22.6 14.9031 22.6 15.98C22.6 17.057 23.473 17.93 24.55 17.93Z" fill="#292D32"/>
<path d="M7.94 15.98C9.28757 15.98 10.38 14.8876 10.38 13.54C10.38 12.1924 9.28757 11.1 7.94 11.1C6.59243 11.1 5.5 12.1924 5.5 13.54C5.5 14.8876 6.59243 15.98 7.94 15.98Z" fill="#292D32"/>
</g>
<defs>
<clipPath id="clip0_2209_30">
<rect y="0.5" width="32" height="32" rx="7" fill="white"/>
</clipPath>
</defs>
</svg>
