<svg width="36" height="35" viewBox="0 0 36 35" fill="none" xmlns="http://www.w3.org/2000/svg"><path d="M18.0001 5.10413C11.1541 5.10413 5.60425 10.6539 5.60425 17.5C5.60425 24.346 11.1541 29.8958 18.0001 29.8958C24.4425 29.8958 29.7362 24.9817 30.3388 18.6969C30.3669 18.4044 30.2166 18.1236 29.9577 17.9847C29.6987 17.8458 29.3817 17.8759 29.1535 18.0611C27.8999 19.0784 26.3033 19.6875 24.5626 19.6875C20.5355 19.6875 17.2709 16.4229 17.2709 12.3958C17.2709 10.004 18.4218 7.88113 20.203 6.55031C20.4385 6.37434 20.5453 6.07416 20.4739 5.78898C20.4025 5.5038 20.1668 5.28942 19.8761 5.24527C19.2639 5.15228 18.6374 5.10413 18.0001 5.10413Z"/></svg>
